<svg width="250" height="70" viewBox="0 0 530 93" fill="none" xmlns="http://www.w3.org/2000/svg">
<path d="M38.3368 55.9843C36.5776 55.3577 34.9783 54.731 33.539 54.1044C32.0997 53.4361 30.8602 52.6423 29.8207 51.7233C28.7812 50.8043 27.9616 49.7182 27.3618 48.4649C26.8021 47.17 26.5222 45.6034 26.5222 43.7654C26.5222 40.2146 27.8216 37.374 30.4204 35.2435C33.0592 33.113 36.7375 32.0478 41.4554 32.0478C43.1746 32.0478 44.7738 32.1731 46.2531 32.4237C47.7325 32.6744 48.9919 33.0712 50.0314 33.6143C51.1109 34.1156 51.9505 34.784 52.5502 35.6195C53.15 36.4132 53.4498 37.3531 53.4498 38.4392C53.4498 39.5253 53.2099 40.4652 52.7302 41.2589C52.2504 42.0109 51.6707 42.6584 50.991 43.2014C50.1114 42.6166 48.9319 42.1153 47.4526 41.6976C45.9733 41.238 44.354 41.0083 42.5948 41.0083C40.7956 41.0083 39.4763 41.2798 38.6367 41.8229C37.797 42.3242 37.3772 42.9717 37.3772 43.7654C37.3772 44.392 37.6371 44.9142 38.1569 45.3319C38.6766 45.7079 39.4563 46.0629 40.4958 46.3971L43.6743 47.4624C47.4326 48.7156 50.3113 50.3239 52.3103 52.2873C54.3494 54.2089 55.3689 56.8406 55.3689 60.1825C55.3689 63.7333 54.0296 66.6157 51.3508 68.8298C48.672 71.002 44.7338 72.0881 39.5362 72.0881C37.6971 72.0881 35.9779 71.921 34.3786 71.5868C32.8193 71.2944 31.4399 70.8558 30.2405 70.271C29.081 69.6444 28.1615 68.8924 27.4818 68.0152C26.8421 67.0961 26.5222 66.0518 26.5222 64.8821C26.5222 63.6707 26.8621 62.6472 27.5417 61.8117C28.2214 60.9345 28.9611 60.2661 29.7607 59.8066C30.8802 60.7256 32.2396 61.5193 33.8388 62.1877C35.4781 62.8561 37.2573 63.1903 39.1764 63.1903C41.1355 63.1903 42.5149 62.877 43.3145 62.2504C44.1141 61.6238 44.5139 60.8927 44.5139 60.0572C44.5139 59.2217 44.1941 58.5951 43.5544 58.1774C42.9147 57.7179 42.0151 57.2793 40.8556 56.8615L38.3368 55.9843Z" fill="#282425"/>
<path d="M81.3306 50.7207C83.0098 50.7207 84.2892 50.3239 85.1688 49.5302C86.0883 48.6947 86.5481 47.4415 86.5481 45.7705C86.5481 44.1831 86.0684 42.9717 85.1088 42.1362C84.1892 41.2589 82.8299 40.8203 81.0307 40.8203C80.391 40.8203 79.8512 40.8412 79.4114 40.883C79.0116 40.883 78.5918 40.9247 78.152 41.0083V50.7207H81.3306ZM78.212 70.8349C77.7722 70.9602 77.0725 71.0856 76.1129 71.2109C75.1934 71.3362 74.2738 71.3989 73.3542 71.3989C72.4346 71.3989 71.615 71.3153 70.8953 71.1482C70.2157 71.0229 69.6359 70.7723 69.1561 70.3963C68.6764 70.0203 68.3165 69.4981 68.0766 68.8298C67.8367 68.1614 67.7168 67.2841 67.7168 66.198V36.6847C67.7168 35.8074 67.9367 35.139 68.3765 34.6795C68.8563 34.1782 69.496 33.7814 70.2956 33.489C71.655 32.9877 73.1943 32.6326 74.9135 32.4237C76.6727 32.1731 78.4319 32.0478 80.1911 32.0478C85.7085 32.0478 89.9266 33.2801 92.8452 35.7448C95.7639 38.2094 97.2232 41.5514 97.2232 45.7705C97.2232 47.8175 96.9034 49.6764 96.2637 51.3474C95.6639 52.9765 94.7444 54.3969 93.505 55.6083C92.3055 56.778 90.7662 57.697 88.8871 58.3654C87.0479 58.992 84.9089 59.3053 82.47 59.3053H78.212V70.8349Z" fill="#3A2826"/>
<path d="M109.169 38.9405C109.169 37.1442 109.669 35.7239 110.668 34.6795C111.668 33.6352 113.027 33.113 114.747 33.113H134.537C134.817 33.5725 135.057 34.1783 135.257 34.9302C135.497 35.6821 135.617 36.4758 135.617 37.3113C135.617 38.8987 135.277 40.0266 134.597 40.695C133.958 41.3634 133.098 41.6976 132.019 41.6976H119.364V47.525H132.858C133.138 47.9846 133.378 48.5903 133.578 49.3422C133.818 50.0524 133.938 50.8252 133.938 51.6607C133.938 53.2481 133.618 54.376 132.978 55.0444C132.338 55.7127 131.479 56.0469 130.399 56.0469H119.364V62.6263H134.777C135.057 63.0859 135.297 63.6916 135.497 64.4435C135.737 65.1954 135.857 65.9891 135.857 66.8246C135.857 68.412 135.517 69.5608 134.837 70.271C134.198 70.9394 133.338 71.2736 132.258 71.2736H114.747C113.027 71.2736 111.668 70.7514 110.668 69.707C109.669 68.6627 109.169 67.2424 109.169 65.4461V38.9405Z" fill="#4C2C28"/>
<path d="M157.304 34.2409C157.983 33.8232 159.003 33.4263 160.362 33.0504C161.762 32.6744 163.161 32.4864 164.56 32.4864C166.559 32.4864 168.319 32.7997 169.838 33.4263C171.397 34.0112 172.397 34.9511 172.836 36.2461C173.556 38.4183 174.336 40.9457 175.175 43.8281C176.015 46.7105 176.855 49.6973 177.694 52.7886C178.534 55.8381 179.353 58.8667 180.153 61.8744C180.953 64.8404 181.652 67.4721 182.252 69.7697C181.772 70.3545 181.053 70.8141 180.093 71.1482C179.134 71.5242 177.994 71.7122 176.675 71.7122C175.715 71.7122 174.896 71.6286 174.216 71.4615C173.576 71.2945 173.036 71.0438 172.597 70.7096C172.197 70.3754 171.857 69.9368 171.577 69.3937C171.337 68.8507 171.117 68.2241 170.917 67.5139L169.838 63.1903H158.983C158.663 64.4435 158.343 65.7385 158.023 67.0753C157.703 68.412 157.384 69.707 157.064 70.9603C156.504 71.1691 155.904 71.3362 155.265 71.4615C154.665 71.6286 153.925 71.7122 153.046 71.7122C151.007 71.7122 149.487 71.3571 148.488 70.647C147.528 69.895 147.048 68.8716 147.048 67.5766C147.048 66.9917 147.128 66.4069 147.288 65.8221C147.448 65.2372 147.628 64.548 147.828 63.7542C148.108 62.6264 148.488 61.2269 148.967 59.556C149.487 57.885 150.047 56.0887 150.647 54.1671C151.246 52.2037 151.886 50.1986 152.566 48.1517C153.245 46.1047 153.885 44.1831 154.485 42.3869C155.085 40.5488 155.624 38.9196 156.104 37.4993C156.624 36.079 157.024 34.9929 157.304 34.2409ZM164.5 42.3242C163.941 44.0787 163.301 46.0421 162.581 48.2143C161.901 50.3448 161.282 52.517 160.722 54.7311H168.159C167.599 52.4753 167.019 50.2821 166.419 48.1517C165.86 45.9794 165.34 44.0369 164.86 42.3242H164.5Z" fill="#5E2F29"/>
<path d="M204.386 56.9869V70.8349C203.946 70.9602 203.246 71.0856 202.287 71.2109C201.327 71.3362 200.388 71.3989 199.468 71.3989C198.549 71.3989 197.729 71.3153 197.009 71.1482C196.33 71.0229 195.75 70.7723 195.27 70.3963C194.79 70.0203 194.43 69.4982 194.191 68.8298C193.951 68.1614 193.831 67.2841 193.831 66.198V33.113C194.27 33.0295 194.97 32.925 195.93 32.7997C196.889 32.6326 197.809 32.5491 198.688 32.5491C199.608 32.5491 200.408 32.6326 201.087 32.7997C201.807 32.925 202.407 33.1757 202.887 33.5516C203.366 33.9276 203.726 34.4498 203.966 35.1182C204.206 35.7866 204.326 36.6638 204.326 37.7499V47.713L216.8 32.7371C219.519 32.7371 221.458 33.2801 222.617 34.3662C223.817 35.4106 224.417 36.6638 224.417 38.1259C224.417 39.212 224.157 40.2355 223.637 41.1963C223.117 42.1571 222.278 43.2432 221.118 44.4547L213.622 52.2873C214.621 53.4569 215.661 54.6684 216.74 55.9216C217.86 57.1748 218.939 58.4072 219.979 59.6186C221.058 60.7883 222.078 61.9162 223.037 63.0023C224.037 64.0884 224.896 65.0283 225.616 65.822C225.616 66.7411 225.456 67.5557 225.136 68.2658C224.816 68.976 224.377 69.5817 223.817 70.083C223.297 70.5843 222.697 70.9602 222.018 71.2109C221.338 71.4615 220.618 71.5869 219.859 71.5869C218.219 71.5869 216.88 71.1691 215.841 70.3336C214.801 69.4564 213.802 68.4329 212.842 67.2633L204.386 56.9869Z" fill="#70332A"/>
<path d="M237.391 38.9405C237.391 37.1442 237.891 35.7239 238.891 34.6795C239.89 33.6352 241.25 33.113 242.969 33.113H262.76C263.04 33.5725 263.279 34.1783 263.479 34.9302C263.719 35.6821 263.839 36.4758 263.839 37.3113C263.839 38.8987 263.499 40.0266 262.82 40.695C262.18 41.3634 261.32 41.6976 260.241 41.6976H247.587V47.525H261.08C261.36 47.9846 261.6 48.5903 261.8 49.3422C262.04 50.0524 262.16 50.8252 262.16 51.6607C262.16 53.2481 261.84 54.376 261.2 55.0444C260.561 55.7127 259.701 56.0469 258.622 56.0469H247.587V62.6263H263C263.279 63.0859 263.519 63.6916 263.719 64.4435C263.959 65.1954 264.079 65.9891 264.079 66.8246C264.079 68.412 263.739 69.5608 263.06 70.271C262.42 70.9394 261.56 71.2736 260.481 71.2736H242.969C241.25 71.2736 239.89 70.7514 238.891 69.707C237.891 68.6627 237.391 67.2424 237.391 65.4461V38.9405Z" fill="#82372C"/>
<path d="M287.405 58.804V70.8349C286.965 70.9602 286.265 71.0856 285.306 71.2109C284.386 71.3362 283.466 71.3989 282.547 71.3989C281.627 71.3989 280.808 71.3153 280.088 71.1482C279.408 71.0229 278.829 70.7723 278.349 70.3963C277.909 70.0203 277.569 69.4982 277.329 68.8298C277.089 68.1614 276.969 67.2841 276.969 66.198V36.6847C276.969 35.8074 277.189 35.139 277.629 34.6795C278.109 34.1782 278.749 33.7814 279.548 33.489C280.908 32.9877 282.487 32.6326 284.286 32.4237C286.085 32.1731 288.004 32.0478 290.043 32.0478C295.561 32.0478 299.719 33.2592 302.518 35.6821C305.316 38.105 306.716 41.3843 306.716 45.5199C306.716 48.1099 306.076 50.3239 304.797 52.1619C303.517 54 301.998 55.4203 300.239 56.4229C301.678 58.4698 303.097 60.3914 304.497 62.1877C305.896 63.984 306.996 65.6132 307.795 67.0753C307.395 68.5373 306.656 69.6652 305.576 70.4589C304.537 71.2109 303.357 71.5868 302.038 71.5868C301.158 71.5868 300.399 71.4824 299.759 71.2735C299.119 71.0647 298.56 70.7723 298.08 70.3963C297.6 70.0203 297.16 69.5608 296.76 69.0177C296.361 68.4747 295.981 67.8898 295.621 67.2632L290.583 58.804H287.405ZM291.183 50.4701C292.702 50.4701 293.902 50.0732 294.781 49.2795C295.661 48.4441 296.101 47.2326 296.101 45.6452C296.101 44.0578 295.601 42.8672 294.601 42.0735C293.642 41.2381 292.103 40.8203 289.984 40.8203C289.384 40.8203 288.904 40.8412 288.544 40.883C288.184 40.9247 287.785 40.9874 287.345 41.071V50.4701H291.183Z" fill="#943B2D"/>
<path d="M342.442 55.9843C340.683 55.3577 339.083 54.731 337.644 54.1044C336.205 53.4361 334.965 52.6423 333.926 51.7233C332.886 50.8043 332.067 49.7182 331.467 48.4649C330.907 47.17 330.627 45.6034 330.627 43.7654C330.627 40.2146 331.927 37.374 334.525 35.2435C337.164 33.113 340.842 32.0478 345.56 32.0478C347.28 32.0478 348.879 32.1731 350.358 32.4237C351.837 32.6744 353.097 33.0712 354.136 33.6143C355.216 34.1156 356.055 34.784 356.655 35.6195C357.255 36.4132 357.555 37.3531 357.555 38.4392C357.555 39.5253 357.315 40.4652 356.835 41.2589C356.355 42.0109 355.776 42.6584 355.096 43.2014C354.216 42.6166 353.037 42.1153 351.558 41.6976C350.078 41.238 348.459 41.0083 346.7 41.0083C344.901 41.0083 343.581 41.2798 342.742 41.8229C341.902 42.3242 341.482 42.9717 341.482 43.7654C341.482 44.392 341.742 44.9142 342.262 45.3319C342.782 45.7079 343.561 46.0629 344.601 46.3971L347.779 47.4624C351.538 48.7156 354.416 50.3239 356.415 52.2873C358.454 54.2089 359.474 56.8406 359.474 60.1825C359.474 63.7333 358.135 66.6157 355.456 68.8298C352.777 71.002 348.839 72.0881 343.641 72.0881C341.802 72.0881 340.083 71.921 338.484 71.5868C336.924 71.2944 335.545 70.8558 334.345 70.271C333.186 69.6444 332.266 68.8924 331.587 68.0152C330.947 67.0961 330.627 66.0518 330.627 64.8821C330.627 63.6707 330.967 62.6472 331.647 61.8117C332.326 60.9345 333.066 60.2661 333.866 59.8066C334.985 60.7256 336.345 61.5193 337.944 62.1877C339.583 62.8561 341.362 63.1903 343.281 63.1903C345.24 63.1903 346.62 62.877 347.419 62.2504C348.219 61.6238 348.619 60.8927 348.619 60.0572C348.619 59.2217 348.299 58.5951 347.659 58.1774C347.02 57.7179 346.12 57.2793 344.961 56.8615L342.442 55.9843Z" fill="#A63F2E"/>
<path d="M404.327 70.8349C403.887 70.9602 403.187 71.0856 402.228 71.2109C401.308 71.3362 400.389 71.3989 399.469 71.3989C398.549 71.3989 397.73 71.3153 397.01 71.1482C396.33 71.0229 395.751 70.7723 395.271 70.3963C394.791 70.0203 394.431 69.4982 394.192 68.8298C393.952 68.1614 393.832 67.2841 393.832 66.198V56.4229H382.317V70.8349C381.877 70.9602 381.177 71.0856 380.218 71.2109C379.298 71.3362 378.379 71.3989 377.459 71.3989C376.54 71.3989 375.72 71.3153 375 71.1482C374.321 71.0229 373.741 70.7723 373.261 70.3963C372.781 70.0203 372.422 69.4982 372.182 68.8298C371.942 68.1614 371.822 67.2841 371.822 66.198V33.113C372.262 33.0295 372.961 32.925 373.921 32.7997C374.88 32.6326 375.8 32.5491 376.68 32.5491C377.599 32.5491 378.399 32.6326 379.078 32.7997C379.798 32.925 380.398 33.1757 380.878 33.5516C381.357 33.9276 381.717 34.4498 381.957 35.1182C382.197 35.7866 382.317 36.6638 382.317 37.7499V47.7757H393.832V33.113C394.271 33.0295 394.971 32.925 395.931 32.7997C396.89 32.6326 397.81 32.5491 398.689 32.5491C399.609 32.5491 400.409 32.6326 401.088 32.7997C401.808 32.925 402.408 33.1757 402.888 33.5516C403.367 33.9276 403.727 34.4498 403.967 35.1182C404.207 35.7866 404.327 36.6638 404.327 37.7499V70.8349Z" fill="#B8422F"/>
<path d="M416.98 52.0366C416.98 48.7783 417.46 45.8959 418.42 43.3894C419.419 40.883 420.758 38.7943 422.438 37.1233C424.157 35.4106 426.156 34.1156 428.435 33.2384C430.754 32.3611 433.253 31.9225 435.931 31.9225C438.61 31.9225 441.089 32.3611 443.368 33.2384C445.687 34.1156 447.706 35.4106 449.425 37.1233C451.144 38.7943 452.484 40.883 453.443 43.3894C454.443 45.8959 454.943 48.7783 454.943 52.0366C454.943 55.295 454.463 58.1983 453.503 60.7465C452.544 63.253 451.204 65.3625 449.485 67.0753C447.806 68.7462 445.807 70.0203 443.488 70.8976C441.169 71.7748 438.65 72.2135 435.931 72.2135C433.213 72.2135 430.694 71.7748 428.375 70.8976C426.056 69.9786 424.057 68.6627 422.378 66.95C420.698 65.2372 419.379 63.1276 418.42 60.6212C417.46 58.1148 416.98 55.2532 416.98 52.0366ZM427.775 52.0366C427.775 55.8381 428.515 58.6787 429.994 60.5585C431.474 62.4384 433.453 63.3783 435.931 63.3783C438.45 63.3783 440.449 62.4384 441.929 60.5585C443.408 58.6787 444.148 55.8381 444.148 52.0366C444.148 48.277 443.408 45.4572 441.929 43.5774C440.489 41.6976 438.51 40.7577 435.991 40.7577C433.513 40.7577 431.514 41.6976 429.994 43.5774C428.515 45.4155 427.775 48.2352 427.775 52.0366Z" fill="#CA4631"/>
<path d="M481.225 50.7207C482.904 50.7207 484.183 50.3239 485.063 49.5302C485.982 48.6947 486.442 47.4415 486.442 45.7705C486.442 44.1831 485.962 42.9717 485.003 42.1362C484.083 41.2589 482.724 40.8203 480.925 40.8203C480.285 40.8203 479.745 40.8412 479.305 40.883C478.906 40.883 478.486 40.9247 478.046 41.0083V50.7207H481.225ZM478.106 70.8349C477.666 70.9602 476.967 71.0856 476.007 71.2109C475.087 71.3362 474.168 71.3989 473.248 71.3989C472.329 71.3989 471.509 71.3153 470.789 71.1482C470.11 71.0229 469.53 70.7723 469.05 70.3963C468.57 70.0203 468.211 69.4981 467.971 68.8298C467.731 68.1614 467.611 67.2841 467.611 66.198V36.6847C467.611 35.8074 467.831 35.139 468.271 34.6795C468.75 34.1782 469.39 33.7814 470.19 33.489C471.549 32.9877 473.088 32.6326 474.808 32.4237C476.567 32.1731 478.326 32.0478 480.085 32.0478C485.603 32.0478 489.821 33.2801 492.739 35.7448C495.658 38.2094 497.117 41.5514 497.117 45.7705C497.117 47.8175 496.797 49.6764 496.158 51.3474C495.558 52.9765 494.638 54.3969 493.399 55.6083C492.2 56.778 490.66 57.697 488.781 58.3654C486.942 58.992 484.803 59.3053 482.364 59.3053H478.106V70.8349Z" fill="#DC4A32"/>
</svg>
